<svg width="47" height="48" fill="none" xmlns="http://www.w3.org/2000/svg"><g clip-path="url('#clip0_202_10')"><path d="M23.5 0c-6.377 0-7.18.03-9.685.144-2.506.12-4.212.522-5.707 1.116a11.486 11.486 0 0 0-4.163 2.769A11.808 11.808 0 0 0 1.234 8.28C.652 9.804.256 11.55.14 14.1.029 16.665 0 17.481 0 24.003c0 6.516.03 7.332.141 9.891.118 2.556.511 4.299 1.093 5.826.602 1.578 1.404 2.916 2.711 4.251 1.304 1.335 2.614 2.157 4.16 2.769 1.498.594 3.201.999 5.704 1.116 2.509.114 3.308.144 9.691.144 6.383 0 7.18-.03 9.688-.144 2.5-.12 4.212-.522 5.707-1.116a11.484 11.484 0 0 0 4.16-2.769c1.307-1.335 2.11-2.673 2.711-4.251.579-1.527.976-3.27 1.093-5.826.112-2.559.141-3.375.141-9.894s-.03-7.335-.141-9.897c-.117-2.553-.514-4.299-1.093-5.823a11.806 11.806 0 0 0-2.711-4.251 11.468 11.468 0 0 0-4.163-2.769C37.395.666 35.685.261 33.185.144 30.676.03 29.88 0 23.495 0h.008-.003Zm-2.106 4.326h2.109c6.274 0 7.018.021 9.494.138 2.291.105 3.537.498 4.365.825 1.096.435 1.88.957 2.703 1.797.822.84 1.33 1.638 1.756 2.76.323.843.705 2.115.808 4.455.115 2.529.138 3.288.138 9.693 0 6.405-.023 7.167-.138 9.696-.103 2.34-.488 3.609-.808 4.455a7.427 7.427 0 0 1-1.76 2.757c-.822.84-1.603 1.359-2.702 1.794-.822.33-2.068.72-4.362.828-2.476.114-3.22.141-9.494.141-6.275 0-7.02-.027-9.497-.141-2.291-.108-3.534-.498-4.362-.828a7.266 7.266 0 0 1-2.703-1.794 7.457 7.457 0 0 1-1.762-2.76c-.32-.843-.705-2.115-.808-4.455-.112-2.529-.135-3.288-.135-9.699 0-6.408.023-7.164.135-9.693.106-2.34.488-3.612.81-4.458.427-1.119.938-1.92 1.76-2.76.823-.84 1.604-1.359 2.703-1.794.828-.33 2.07-.72 4.362-.828 2.168-.102 3.008-.132 7.388-.135v.006ZM36.046 8.31c-.37 0-.737.074-1.08.22a2.818 2.818 0 0 0-.914.624c-.262.267-.47.584-.611.934a2.933 2.933 0 0 0 .611 3.139c.262.267.573.479.915.624a2.77 2.77 0 0 0 3.073-.625c.529-.54.826-1.272.826-2.036s-.297-1.496-.826-2.036a2.79 2.79 0 0 0-1.994-.844Zm-12.543 3.366a11.85 11.85 0 0 0-4.677.882 12.049 12.049 0 0 0-3.98 2.66 12.343 12.343 0 0 0-2.665 4.022 12.554 12.554 0 0 0 0 9.523 12.343 12.343 0 0 0 2.666 4.023 12.049 12.049 0 0 0 3.98 2.659 11.85 11.85 0 0 0 4.676.882 11.95 11.95 0 0 0 8.413-3.677 12.463 12.463 0 0 0 3.469-8.648c0-3.236-1.246-6.343-3.47-8.649a11.95 11.95 0 0 0-8.412-3.677Zm0 4.323c2.078 0 4.07.843 5.54 2.343A8.088 8.088 0 0 1 31.337 24a8.088 8.088 0 0 1-2.294 5.658A7.753 7.753 0 0 1 23.503 32a7.753 7.753 0 0 1-5.54-2.343A8.088 8.088 0 0 1 15.67 24c0-2.122.825-4.157 2.294-5.658A7.753 7.753 0 0 1 23.503 16Z" fill="#172C66"/></g><defs><clipPath id="clip0_202_10"><path fill="#fff" d="M0 0h47v48H0z"/></clipPath></defs></svg>