<svg width="43" height="42" fill="none" xmlns="http://www.w3.org/2000/svg"><path d="M0 3.008C0 1.347 1.414 0 3.158 0h36.684C41.586 0 43 1.347 43 3.008v35.984C43 40.653 41.586 42 39.842 42H3.158C1.414 42 0 40.653 0 38.992V3.008ZM13.284 35.16V16.194H6.832v18.965h6.452ZM10.06 13.603c2.25 0 3.65-1.454 3.65-3.276-.04-1.861-1.398-3.276-3.607-3.276-2.209 0-3.652 1.417-3.652 3.276 0 1.822 1.4 3.276 3.566 3.276h.043Zm13.19 21.556V24.567c0-.567.044-1.134.216-1.538.465-1.131 1.526-2.305 3.31-2.305 2.336 0 3.269 1.738 3.269 4.29v10.145h6.452V24.281c0-5.827-3.182-8.536-7.428-8.536-3.424 0-4.958 1.837-5.818 3.131v.066h-.043l.043-.066v-2.682H16.8c.08 1.78 0 18.965 0 18.965h6.45Z" fill="#172C66"/></svg>