<svg width="44" height="48" fill="none" xmlns="http://www.w3.org/2000/svg"><path d="M0 3.438C0 1.539 1.424 0 3.181 0h36.956c1.757 0 3.181 1.539 3.181 3.438v41.124c0 1.899-1.424 3.438-3.181 3.438H3.18C1.424 48 0 46.461 0 44.562V3.438Zm13.383 36.744V18.507h-6.5v21.675h6.5Zm-3.25-24.636c2.267 0 3.677-1.662 3.677-3.744-.04-2.127-1.408-3.744-3.633-3.744s-3.68 1.62-3.68 3.744c0 2.082 1.411 3.744 3.593 3.744h.044Zm13.289 24.636V28.077c0-.648.043-1.296.216-1.758.468-1.293 1.538-2.634 3.336-2.634 2.352 0 3.292 1.986 3.292 4.902v11.595h6.5V27.75c0-6.66-3.205-9.756-7.483-9.756-3.45 0-4.995 2.1-5.861 3.579v.075h-.044l.044-.075v-3.066h-6.498c.081 2.034 0 21.675 0 21.675h6.498Z" fill="#172C66"/></svg>