<svg width="47" height="48" viewBox="0 0 47 48" fill="none" xmlns="http://www.w3.org/2000/svg">
<g clip-path="url(#clip0_202_10)">
<path d="M23.5 0C17.1227 0 16.3207 0.03 13.8151 0.144C11.3094 0.264 9.60269 0.666 8.1075 1.26C6.53915 1.86246 5.11857 2.80748 3.94506 4.029C2.74972 5.22809 1.8245 6.67872 1.23375 8.28C0.652125 9.804 0.255563 11.55 0.141 14.1C0.029375 16.665 0 17.481 0 24.003C0 30.519 0.029375 31.335 0.141 33.894C0.2585 36.45 0.652125 38.193 1.23375 39.72C1.83594 41.298 2.63788 42.636 3.94506 43.971C5.24931 45.306 6.55944 46.128 8.10456 46.74C9.60269 47.334 11.3064 47.739 13.8092 47.856C16.3178 47.97 17.1168 48 23.5 48C29.8832 48 30.6793 47.97 33.1879 47.856C35.6877 47.736 37.4002 47.334 38.8954 46.74C40.4628 46.1372 41.8823 45.1922 43.0549 43.971C44.3621 42.636 45.1641 41.298 45.7663 39.72C46.3449 38.193 46.7415 36.45 46.859 33.894C46.9706 31.335 47 30.519 47 24C47 17.481 46.9706 16.665 46.859 14.103C46.7415 11.55 46.3449 9.804 45.7663 8.28C45.1756 6.67868 44.2503 5.22803 43.0549 4.029C41.8818 2.80703 40.4611 1.86194 38.8925 1.26C37.3944 0.666 35.6847 0.261 33.1849 0.144C30.6763 0.03 29.8803 0 23.4941 0H23.5029H23.5ZM21.3938 4.326H23.5029C29.7774 4.326 30.5206 4.347 32.9969 4.464C35.2882 4.569 36.5337 4.962 37.3621 5.289C38.4577 5.724 39.2421 6.246 40.0646 7.086C40.8871 7.926 41.3953 8.724 41.8212 9.846C42.1443 10.689 42.5262 11.961 42.629 14.301C42.7436 16.83 42.7671 17.589 42.7671 23.994C42.7671 30.399 42.7436 31.161 42.629 33.69C42.5262 36.03 42.1414 37.299 41.8212 38.145C41.4444 39.1871 40.8431 40.1293 40.0616 40.902C39.2391 41.742 38.4578 42.261 37.3591 42.696C36.5366 43.026 35.2911 43.416 32.9969 43.524C30.5206 43.638 29.7774 43.665 23.5029 43.665C17.2284 43.665 16.4823 43.638 14.006 43.524C11.7148 43.416 10.4722 43.026 9.64381 42.696C8.62303 42.3118 7.69956 41.6987 6.94131 40.902C6.15921 40.1281 5.55694 39.185 5.17881 38.142C4.85862 37.299 4.47381 36.027 4.371 33.687C4.25938 31.158 4.23588 30.399 4.23588 23.988C4.23588 17.58 4.25938 16.824 4.371 14.295C4.47675 11.955 4.85862 10.683 5.18175 9.837C5.60769 8.718 6.11881 7.917 6.94131 7.077C7.76381 6.237 8.54519 5.718 9.64381 5.283C10.4722 4.953 11.7148 4.563 14.006 4.455C16.1739 4.353 17.014 4.323 21.3938 4.32V4.326ZM36.0461 8.31C35.6757 8.31 35.309 8.38449 34.9669 8.52923C34.6248 8.67396 34.3139 8.8861 34.052 9.15353C33.7902 9.42097 33.5824 9.73845 33.4407 10.0879C33.299 10.4373 33.2261 10.8118 33.2261 11.19C33.2261 11.5682 33.299 11.9427 33.4407 12.2921C33.5824 12.6415 33.7902 12.959 34.052 13.2265C34.3139 13.4939 34.6248 13.706 34.9669 13.8508C35.309 13.9955 35.6757 14.07 36.0461 14.07C36.794 14.07 37.5112 13.7666 38.0401 13.2265C38.569 12.6864 38.8661 11.9538 38.8661 11.19C38.8661 10.4262 38.569 9.69364 38.0401 9.15353C37.5112 8.61343 36.794 8.31 36.0461 8.31ZM23.5029 11.676C21.9022 11.6505 20.3125 11.9505 18.8264 12.5584C17.3402 13.1664 15.9874 14.0702 14.8466 15.2173C13.7057 16.3643 12.7998 17.7317 12.1813 19.2398C11.5629 20.7479 11.2445 22.3665 11.2445 24.0015C11.2445 25.6365 11.5629 27.2551 12.1813 28.7632C12.7998 30.2713 13.7057 31.6387 14.8466 32.7857C15.9874 33.9328 17.3402 34.8366 18.8264 35.4446C20.3125 36.0525 21.9022 36.3525 23.5029 36.327C26.6712 36.2765 29.6929 34.9557 31.9159 32.6497C34.1389 30.3438 35.3848 27.2375 35.3848 24.0015C35.3848 20.7655 34.1389 17.6592 31.9159 15.3532C29.6929 13.0473 26.6712 11.7265 23.5029 11.676ZM23.5029 15.999C25.5807 15.999 27.5734 16.842 29.0426 18.3424C30.5119 19.8429 31.3372 21.878 31.3372 24C31.3372 26.122 30.5119 28.1571 29.0426 29.6576C27.5734 31.158 25.5807 32.001 23.5029 32.001C21.4251 32.001 19.4325 31.158 17.9632 29.6576C16.494 28.1571 15.6686 26.122 15.6686 24C15.6686 21.878 16.494 19.8429 17.9632 18.3424C19.4325 16.842 21.4251 15.999 23.5029 15.999Z" fill="#172C66"/>
</g>
<defs>
<clipPath id="clip0_202_10">
<rect width="47" height="48" fill="white"/>
</clipPath>
</defs>
</svg>
