<svg width="43" height="42" viewBox="0 0 43 42" fill="none" xmlns="http://www.w3.org/2000/svg">
<path d="M0 3.00825C0 1.34663 1.41362 0 3.15781 0H39.8422C41.5864 0 43 1.34663 43 3.00825V38.9917C43 40.6534 41.5864 42 39.8422 42H3.15781C1.41362 42 0 40.6534 0 38.9917V3.00825ZM13.2843 35.1592V16.1936H6.83162V35.1592H13.2843ZM10.0593 13.6028C12.3088 13.6028 13.7089 12.1485 13.7089 10.3267C13.6686 8.46562 12.3114 7.05075 10.1023 7.05075C7.89319 7.05075 6.45 8.46825 6.45 10.3267C6.45 12.1485 7.85019 13.6028 10.0163 13.6028H10.0593ZM23.2496 35.1592V24.5674C23.2496 24.0004 23.2926 23.4334 23.4646 23.0291C23.9295 21.8977 24.9911 20.7244 26.7756 20.7244C29.111 20.7244 30.0436 22.4621 30.0436 25.0136V35.1592H36.4963V24.2812C36.4963 18.4538 33.3143 15.7448 29.068 15.7448C25.6441 15.7448 24.1096 17.5823 23.2496 18.8764V18.942H23.2066C23.2208 18.9201 23.2352 18.8982 23.2496 18.8764V16.1936H16.7996C16.8802 17.9734 16.7996 35.1592 16.7996 35.1592H23.2496Z" fill="#172C66"/>
</svg>
